<?xml version="1.0" encoding="UTF-8"?>
<!DOCTYPE svg PUBLIC "-//W3C//DTD SVG 1.1//EN" "http://www.w3.org/Graphics/SVG/1.1/DTD/svg11.dtd">
<svg xmlns="http://www.w3.org/2000/svg" version="1.1" width="1299px" height="1080px" style="shape-rendering:geometricPrecision; text-rendering:geometricPrecision; image-rendering:optimizeQuality; fill-rule:evenodd; clip-rule:evenodd" xmlns:xlink="http://www.w3.org/1999/xlink">
<g><path style="opacity:0.974" fill="#000000" d="M 590.5,79.5 C 680.928,73.9755 769.594,83.8088 856.5,109C 948.139,136.96 1028.47,183.627 1097.5,249C 1131.71,283.586 1159.88,322.752 1182,366.5C 1185.75,373.716 1188.91,381.216 1191.5,389C 1195.39,393.219 1198.89,397.719 1202,402.5C 1202.67,550.833 1202.67,699.167 1202,847.5C 1198.59,854.582 1193.09,859.082 1185.5,861C 1181.5,861.333 1177.5,861.667 1173.5,862C 1020.99,912.957 868.324,963.291 715.5,1013C 694.823,1020.34 674.157,1027.67 653.5,1035C 644.5,1035.67 635.5,1035.67 626.5,1035C 599.955,1025.36 573.288,1016.03 546.5,1007C 396.559,958.433 246.893,909.1 97.5,859C 91.3924,856.559 86.8924,852.392 84,846.5C 83.8628,753.324 83.0295,660.157 81.5,567C 81.8511,516.832 82.0178,466.665 82,416.5C 92.6432,383.557 107.31,352.557 126,323.5C 160.594,272.569 203.094,229.069 253.5,193C 339.332,134.476 434.332,98.4757 538.5,85C 555.974,83.0652 573.307,81.2319 590.5,79.5 Z M 1082.5,366.5 C 1005.5,322.273 922.833,307.44 834.5,322C 774.39,332.324 721.39,356.991 675.5,396C 662.335,407.823 650.668,420.989 640.5,435.5C 609.347,391.871 569.013,359.371 519.5,338C 447.127,307.875 372.46,300.875 295.5,317C 267.827,323.749 241.16,333.249 215.5,345.5C 250.131,299.398 292.465,261.231 342.5,231C 423.976,184.281 511.976,158.281 606.5,153C 714.061,147.312 816.061,167.978 912.5,215C 969.387,244.231 1018.22,283.398 1059,332.5C 1067.58,343.34 1075.42,354.673 1082.5,366.5 Z M 360.5,382.5 C 417.48,380.903 469.48,395.736 516.5,427C 542.104,446.257 561.77,470.257 575.5,499C 580.742,514.8 585.909,530.634 591,546.5C 593.022,560.424 593.855,574.424 593.5,588.5C 553.798,598.749 526.965,623.082 513,661.5C 511.018,678.171 511.018,694.837 513,711.5C 516.287,719.534 518.62,727.867 520,736.5C 531.318,758.901 543.151,781.068 555.5,803C 560.011,809.998 564.677,816.831 569.5,823.5C 570.833,827.5 572.167,831.5 573.5,835.5C 583.502,850.834 593.002,866.501 602,882.5C 606.621,888.243 611.121,894.076 615.5,900C 618.924,903.259 622.924,905.592 627.5,907C 635.833,907.667 644.167,907.667 652.5,907C 659.746,904.39 665.412,899.89 669.5,893.5C 677.5,880.167 685.5,866.833 693.5,853.5C 698.268,844.963 702.768,836.296 707,827.5C 710.755,822.974 714.255,818.307 717.5,813.5C 719,810.5 720.5,807.5 722,804.5C 725.922,805.73 729.589,805.064 733,802.5C 736.87,794.574 740.87,786.574 745,778.5C 745.333,769.5 745.667,760.5 746,751.5C 751.252,743.332 756.252,734.999 761,726.5C 763.082,719.793 765.082,713.126 767,706.5C 772.926,673.976 764.926,645.643 743,621.5C 736.207,616.375 729.707,610.875 723.5,605C 711.961,597.664 699.628,591.83 686.5,587.5C 682.691,548 691.857,512 714,479.5C 722.116,468.717 730.949,458.55 740.5,449C 790.275,407.441 847.942,388.108 913.5,391C 968.4,394.938 1016.4,414.605 1057.5,450C 1064.18,456.024 1069.35,463.19 1073,471.5C 1081.07,479.247 1088.07,487.914 1094,497.5C 1095.95,503.347 1098.28,509.014 1101,514.5C 1101.44,574.836 1101.1,635.169 1100,695.5C 1098.41,698.051 1097.57,700.884 1097.5,704C 1101.48,736.237 1102.48,768.57 1100.5,801C 1069.33,811.586 1038,821.586 1006.5,831C 1004.88,831.615 1003.55,832.615 1002.5,834C 979.626,838.958 957.626,846.291 936.5,856C 917.428,861.802 898.428,867.802 879.5,874C 869.062,875.146 859.396,878.479 850.5,884C 780.495,907.057 710.495,930.224 640.5,953.5C 595.412,938.971 550.412,924.137 505.5,909C 494.758,902.47 483.091,898.47 470.5,897C 425.585,882.941 380.918,868.275 336.5,853C 324.855,847.003 312.522,843.003 299.5,841C 281.945,834.639 264.445,828.139 247,821.5C 242.145,820.812 237.312,819.979 232.5,819C 217.088,812.898 201.421,807.564 185.5,803C 184.349,793.578 184.182,784.078 185,774.5C 188.271,766.78 188.271,759.113 185,751.5C 184.333,661.167 184.333,570.833 185,480.5C 208.966,443.898 241.466,417.398 282.5,401C 307.824,391.572 333.824,385.405 360.5,382.5 Z M 618.5,789.5 C 606.222,768.612 594.722,747.278 584,725.5C 579.729,719.175 575.396,712.842 571,706.5C 560.561,674.221 570.394,650.388 600.5,635C 626.508,623.177 652.174,623.844 677.5,637C 689.132,643.963 697.965,653.463 704,665.5C 705.15,669.288 706.483,672.954 708,676.5C 708.667,681.833 708.667,687.167 708,692.5C 706.368,696.346 705.034,700.346 704,704.5C 682.788,745.595 661.621,786.595 640.5,827.5C 639.137,828.879 638.137,828.713 637.5,827C 631.43,814.235 625.096,801.735 618.5,789.5 Z"/></g>
<g><path style="opacity:0.957" fill="#000000" d="M 877.5,499.5 C 888.505,499.333 899.505,499.5 910.5,500C 929.524,503.728 942.358,514.562 949,532.5C 954.469,564.409 941.635,584.576 910.5,593C 899.5,593.667 888.5,593.667 877.5,593C 844.894,584.653 831.894,563.82 838.5,530.5C 846.507,513.821 859.507,503.487 877.5,499.5 Z"/></g>
<g><path style="opacity:0.956" fill="#000000" d="M 359.5,501.5 C 386.329,497.146 409.496,504.146 429,522.5C 431.414,527.213 433.747,531.879 436,536.5C 440.199,553.913 435.699,568.413 422.5,580C 415.346,585.134 407.68,589.467 399.5,593C 385.123,596.238 370.79,596.238 356.5,593C 349.75,590.194 343.083,587.194 336.5,584C 323.109,570.626 318.109,554.459 321.5,535.5C 323.168,530.156 324.834,524.822 326.5,519.5C 335.939,510.614 346.939,504.614 359.5,501.5 Z"/></g>
<g><path style="opacity:0.022" fill="#fefffe" d="M 629.5,640.5 C 633.639,639.704 636.805,641.037 639,644.5C 639.288,640.826 640.788,639.993 643.5,642C 642.283,643.648 641.45,645.481 641,647.5C 638.922,649.385 636.755,650.051 634.5,649.5C 638.072,650.706 641.738,651.373 645.5,651.5C 645.286,649.856 645.62,648.356 646.5,647C 650.304,646.458 653.971,645.791 657.5,645C 659.017,646.685 660.684,648.185 662.5,649.5C 653.211,650.319 644.544,652.986 636.5,657.5C 631.925,655.191 630.258,651.691 631.5,647C 626.922,644.915 626.256,642.748 629.5,640.5 Z"/></g>
<g><path style="opacity:0.004" fill="#fefffe" d="M 682.5,652.5 C 683.627,653.122 684.627,653.955 685.5,655C 683.447,655.325 681.447,654.991 679.5,654C 680.737,653.768 681.737,653.268 682.5,652.5 Z"/></g>
<g><path style="opacity:0.023" fill="#fefffe" d="M 655.5,688.5 C 662.398,691.23 667.565,695.897 671,702.5C 671.667,704.167 671.667,705.833 671,707.5C 664.522,702.193 659.355,695.86 655.5,688.5 Z"/></g>
<g><path style="opacity:0.009" fill="#fefffe" d="M 586.5,714.5 C 587.812,710.996 589.812,707.83 592.5,705C 595.275,703.733 597.941,702.233 600.5,700.5C 600.833,700.833 601.167,701.167 601.5,701.5C 597.655,705.845 593.655,710.012 589.5,714C 588.552,714.483 587.552,714.649 586.5,714.5 Z"/></g>
<g><path style="opacity:0.361" fill="#c9c9c9" d="M 731.5,769.5 C 733.308,770.918 733.975,772.918 733.5,775.5C 731.669,776.052 730.003,776.052 728.5,775.5C 730.038,773.757 731.038,771.757 731.5,769.5 Z"/></g>
<g><path style="opacity:0.451" fill="#636363" d="M 727.5,781.5 C 729.337,781.639 729.67,782.306 728.5,783.5C 727.702,783.043 727.369,782.376 727.5,781.5 Z"/></g>
<g><path style="opacity:0.008" fill="#fefffe" d="M 618.5,789.5 C 618.369,788.761 618.536,788.094 619,787.5C 623.898,788.297 628.731,789.464 633.5,791C 628.35,791.705 623.35,791.205 618.5,789.5 Z"/></g>
<g><path style="opacity:0.005" fill="#fefffe" d="M 637.5,789.5 C 641.588,789.218 642.088,789.885 639,791.5C 637.97,791.164 637.47,790.497 637.5,789.5 Z"/></g>
<g><path style="opacity:0.588" fill="#bfbfbf" d="M 719.5,789.5 C 723.079,789.766 723.413,791.099 720.5,793.5C 719.646,792.478 718.646,791.645 717.5,791C 718.416,790.722 719.082,790.222 719.5,789.5 Z"/></g>
</svg>
